<?xml version="1.0" encoding="utf-8"?>
<!-- Svg Vector Icons : http://www.onlinewebfonts.com/icon -->
<!DOCTYPE svg PUBLIC "-//W3C//DTD SVG 1.1//EN" "http://www.w3.org/Graphics/SVG/1.1/DTD/svg11.dtd">
<svg version="1.1" xmlns="http://www.w3.org/2000/svg" xmlns:xlink="http://www.w3.org/1999/xlink" x="0px" y="0px" viewBox="0 0 256 256" enable-background="new 0 0 256 256" xml:space="preserve">
<metadata> Svg Vector Icons : http://www.onlinewebfonts.com/icon </metadata>
<g><g><g><path fill="#000000" d="M10,46.9c0-10.5,8.5-19.1,19.1-19.1h197.9c10.5,0,19.1,8.5,19.1,19.1c0,10.5-8.5,19.1-19.1,19.1H29.1C18.5,66,10,57.5,10,46.9z M226.9,108.9H29.1c-10.5,0-19.1,8.5-19.1,19.1s8.5,19.1,19.1,19.1h197.9c10.5,0,19.1-8.5,19.1-19.1S237.5,108.9,226.9,108.9z M226.9,190H29.1c-10.5,0-19.1,8.5-19.1,19.1s8.5,19.1,19.1,19.1h197.9c10.5,0,19.1-8.5,19.1-19.1S237.5,190,226.9,190z"/></g><g></g><g></g><g></g><g></g><g></g><g></g><g></g><g></g><g></g><g></g><g></g><g></g><g></g><g></g><g></g></g></g>
</svg>